<svg xmlns="http://www.w3.org/2000/svg" width="110" height="38" viewBox="0 0 110 38">
  <defs>
    <style>
      .cls-1 {
        fill: #2ad86b;
      }

      .cls-2 {
        fill: #2d46b9;
        fill-rule: evenodd;
      }
    </style>
  </defs>
  <rect id="Прямоугольник_скругл._углы_1" data-name="Прямоугольник, скругл. углы 1" class="cls-1" width="110" height="38" rx="19" ry="19"/>
  <path id="LYRICS" class="cls-2" d="M34.848,24.732V22.223H29.732V12.951H27.09V24.732h7.758Zm2.938-4.919v4.919h2.642V19.814l4.163-6.863H41.648l-2.458,4.37-2.424-4.37H33.673Zm13.971,4.919h2.909l-2.408-4.769A3.38,3.38,0,0,0,54.6,16.64a3.608,3.608,0,0,0-3.845-3.689h-4.7V24.732H48.7V20.345h0.936ZM48.7,18.086V15.227h1.555a1.425,1.425,0,0,1,1.672,1.429,1.449,1.449,0,0,1-1.672,1.429H48.7Zm10.627,6.647V12.951H56.65V24.732h2.675Zm8.139,0.249A5.467,5.467,0,0,0,73.1,20.861l-2.525-.714a3.022,3.022,0,0,1-3.11,2.21,3.344,3.344,0,0,1-3.411-3.49,3.364,3.364,0,0,1,3.377-3.606,2.861,2.861,0,0,1,3.026,2.194l2.491-.781A5.26,5.26,0,0,0,67.431,12.7a6.018,6.018,0,0,0-6.119,6.165A5.946,5.946,0,0,0,67.464,24.982ZM82.99,15.842c-0.251-1.379-1.371-3.141-4.33-3.141a3.994,3.994,0,0,0-4.247,3.789,3.551,3.551,0,0,0,3.227,3.456l1.622,0.3a1.311,1.311,0,0,1,1.271,1.18c0,0.731-.635,1.23-1.672,1.23A2.2,2.2,0,0,1,76.4,20.628l-2.424.582c0.167,1.662,1.572,3.772,4.849,3.772,2.826,0,4.38-1.878,4.38-3.722,0-1.678-1.17-3.124-3.427-3.54l-1.588-.3a1.165,1.165,0,0,1-1.17-1.13,1.453,1.453,0,0,1,1.622-1.263,1.792,1.792,0,0,1,1.973,1.479Z"/>
</svg>
